<?xml version="1.0" encoding="iso-8859-1"?>
<!-- Uploaded to: SVG Repo, www.svgrepo.com, Generator: SVG Repo Mixer Tools -->
<svg height="800px" width="800px" version="1.1" id="Layer_1" xmlns="http://www.w3.org/2000/svg" xmlns:xlink="http://www.w3.org/1999/xlink" 
	 viewBox="0 0 512 512" xml:space="preserve">
<path style="fill:#C7CFE2;" d="M365.463,283.767c-18.849,0-34.13-15.281-34.13-34.13V143.593c0-41.539-33.795-75.332-75.332-75.332
	c-41.539,0-75.333,33.795-75.333,75.332v106.044c0,18.849-15.281,34.13-34.13,34.13s-34.13-15.281-34.13-34.13V143.593
	C112.408,64.416,176.823,0,256,0s143.592,64.416,143.592,143.592v106.044C399.594,268.486,384.312,283.767,365.463,283.767z"/>
<g style="opacity:0.1;">
	<path d="M146.538,283.767c18.849,0,34.13-15.281,34.13-34.13v-76.023h-68.26v76.023
		C112.408,268.486,127.688,283.767,146.538,283.767z"/>
	<path d="M331.333,173.614v76.023c0,18.849,15.281,34.13,34.13,34.13s34.13-15.281,34.13-34.13v-76.023H331.333z"/>
</g>
<path style="fill:#FFD782;" d="M404.055,207.745H107.945c-17.577,0-31.825,14.249-31.825,31.825v240.605
	c0,17.577,14.248,31.825,31.825,31.825h296.111c17.577,0,31.825-14.248,31.825-31.825V239.57
	C435.882,221.993,421.632,207.745,404.055,207.745z"/>
<path style="opacity:0.1;enable-background:new    ;" d="M295.213,337.119c0-21.657-17.557-39.213-39.213-39.213
	s-39.213,17.557-39.213,39.213c0,12.519,5.874,23.66,15.009,30.839v74.598h48.408v-74.598
	C289.338,360.778,295.213,349.638,295.213,337.119z"/>
</svg>