<?xml version="1.0" encoding="iso-8859-1"?>
<!-- Uploaded to: SVG Repo, www.svgrepo.com, Generator: SVG Repo Mixer Tools -->
<svg height="800px" width="800px" version="1.1" id="Layer_1" xmlns="http://www.w3.org/2000/svg" xmlns:xlink="http://www.w3.org/1999/xlink" 
	 viewBox="0 0 512 512" xml:space="preserve">
<path style="fill:#C7CFE2;" d="M112.408,170v-26.406C112.408,64.416,176.823,0,256,0s143.592,64.416,143.592,143.592v106.044
	c0,18.849-15.281,34.13-34.13,34.13s-34.13-15.281-34.13-34.13V143.592c0-41.539-33.795-75.332-75.332-75.332
	c-41.539,0-75.333,33.795-75.333,75.332v26.406h-68.259V170z"/>
<path style="opacity:0.1;enable-background:new    ;" d="M331.333,173.613v76.023c0,18.849,15.281,34.13,34.13,34.13
	s34.13-15.281,34.13-34.13v-76.023H331.333z"/>
<path style="fill:#FFD782;" d="M404.055,207.745H107.945c-17.577,0-31.825,14.249-31.825,31.825v240.605
	c0,17.577,14.248,31.825,31.825,31.825h296.111c17.577,0,31.825-14.248,31.825-31.825V239.57
	C435.882,221.993,421.632,207.745,404.055,207.745z"/>
</svg>